<?xml version="1.0" encoding="UTF-8"?>
<!-- Do not edit this file with editors other than draw.io -->
<!DOCTYPE svg PUBLIC "-//W3C//DTD SVG 1.1//EN" "http://www.w3.org/Graphics/SVG/1.1/DTD/svg11.dtd">
<svg xmlns="http://www.w3.org/2000/svg" xmlns:xlink="http://www.w3.org/1999/xlink" version="1.1" width="101px" height="101px" viewBox="-0.5 -0.5 101 101" content="&lt;mxfile host=&quot;Electron&quot; modified=&quot;2024-04-10T02:36:17.410Z&quot; agent=&quot;Mozilla/5.0 (Windows NT 10.0; Win64; x64) AppleWebKit/537.36 (KHTML, like Gecko) draw.io/24.1.0 Chrome/120.0.6099.109 Electron/28.1.0 Safari/537.36&quot; etag=&quot;6pj_PzsonDV-qyZR41FR&quot; version=&quot;24.1.0&quot; type=&quot;device&quot; scale=&quot;1&quot; border=&quot;0&quot;&gt;&#10;  &lt;diagram name=&quot;ページ1&quot; id=&quot;9do4p_tqB6LVNHFCKeTV&quot;&gt;&#10;    &lt;mxGraphModel dx=&quot;1912&quot; dy=&quot;1179&quot; grid=&quot;1&quot; gridSize=&quot;10&quot; guides=&quot;1&quot; tooltips=&quot;1&quot; connect=&quot;1&quot; arrows=&quot;1&quot; fold=&quot;1&quot; page=&quot;1&quot; pageScale=&quot;1&quot; pageWidth=&quot;1600&quot; pageHeight=&quot;900&quot; math=&quot;0&quot; shadow=&quot;0&quot;&gt;&#10;      &lt;root&gt;&#10;        &lt;mxCell id=&quot;0&quot; /&gt;&#10;        &lt;mxCell id=&quot;1&quot; parent=&quot;0&quot; /&gt;&#10;        &lt;mxCell id=&quot;je3Wnfrorb-U4zcuGfkc-3&quot; value=&quot;&quot; style=&quot;dashed=0;outlineConnect=0;html=1;align=center;labelPosition=center;verticalLabelPosition=bottom;verticalAlign=top;shape=mxgraph.weblogos.drawio4;fillColor=#1A5BA3;fontSize=15;fontColor=#1A5BA3;fontStyle=1;&quot; vertex=&quot;1&quot; parent=&quot;1&quot;&gt;&#10;          &lt;mxGeometry x=&quot;750&quot; y=&quot;400&quot; width=&quot;100&quot; height=&quot;100&quot; as=&quot;geometry&quot; /&gt;&#10;        &lt;/mxCell&gt;&#10;      &lt;/root&gt;&#10;    &lt;/mxGraphModel&gt;&#10;  &lt;/diagram&gt;&#10;&lt;/mxfile&gt;&#10;" style="background-color: rgb(255, 255, 255);"><defs/><rect fill="#ffffff" width="100%" height="100%" x="0" y="0"/><g><g><path d="M 100 96.78 C 100 98.36 98.3 99.84 97.06 99.84 L 2.67 99.84 C 1.35 99.84 0 98.36 0 97.17 L 0 3.28 C 0 1.52 0.95 0 2.91 0 L 97.64 0.07 C 99.06 0.07 99.98 1.38 100 3.07 Z" fill="#f08707" stroke="none" pointer-events="all"/><path d="M 23.22 76.97 C 20.79 76.97 19.64 74.98 19.64 73.34 L 19.64 60.23 C 19.64 58.66 20.85 56.7 22.54 56.7 L 32.86 56.7 L 42.05 41.47 L 40.83 41.47 C 40.12 41.47 37.93 40.07 37.93 38.55 L 37.93 24.55 C 37.93 22.98 39.89 20.98 41.36 20.98 L 58.03 20.98 C 59.54 20.98 62.01 21.82 62.01 24.7 L 62.01 38.14 C 62.01 39.72 60.59 41.47 59.14 41.47 L 57.95 41.47 L 67.17 56.7 L 76.99 56.7 C 79.32 56.7 80.45 57.99 80.45 59.88 L 80.45 73.36 C 80.45 75.39 78.7 76.97 76.95 76.97 L 60.4 76.97 C 58.28 76.97 56.44 75.61 56.44 73.52 L 56.44 59.38 C 56.69 57.93 58.04 56.7 59.63 56.7 L 62.74 56.7 L 53.88 41.47 L 46.24 41.47 L 37.44 56.7 L 40.82 56.7 C 42.3 56.7 43.59 58.16 43.59 59.83 L 43.59 74.17 C 43.59 75.36 42.22 76.97 40.66 76.97 Z" fill="#ffffff" stroke="none" pointer-events="all"/></g></g></svg>